<svg width="36" height="36" fill="none" xmlns="http://www.w3.org/2000/svg"><g clip-path="url(#clip0_192_30)"><path fill-rule="evenodd" clip-rule="evenodd" d="M17.998.5C8.058.5 0 8.533 0 18.444c0 7.927 5.157 14.652 12.31 17.025.9.164 1.229-.39 1.229-.866 0-.425-.015-1.554-.024-3.05-5.008 1.083-6.064-2.406-6.064-2.406-.818-2.072-1.999-2.624-1.999-2.624-1.634-1.114.124-1.091.124-1.091 1.806.127 2.757 1.849 2.757 1.849 1.606 2.742 4.213 1.95 5.238 1.49.165-1.159.628-1.95 1.143-2.398-3.996-.452-8.2-1.993-8.2-8.868 0-1.958.703-3.56 1.854-4.815-.185-.454-.803-2.278.176-4.748 0 0 1.512-.483 4.95 1.84A17.286 17.286 0 0 1 18 9.176c1.53.007 3.07.206 4.507.604 3.437-2.322 4.945-1.84 4.945-1.84.982 2.471.364 4.295.18 4.75 1.153 1.254 1.85 2.856 1.85 4.814 0 6.893-4.21 8.41-8.22 8.854.648.554 1.223 1.648 1.223 3.323 0 2.398-.022 4.334-.022 4.921 0 .481.324 1.04 1.237.864C30.848 33.089 36 26.369 36 18.444 36 8.533 27.94.5 17.998.5z" fill="#000"/></g><defs><clipPath id="clip0_192_30"><path fill="#fff" d="M0 0H36V36H0z"/></clipPath></defs></svg>