<svg fill="none" height="64" viewBox="0 0 64 64" width="64" xmlns="http://www.w3.org/2000/svg"><path d="m0 0h64v64h-64z" fill="#003ddb"/><path d="m9.00801 48v-31.4918h4.78239v27.4312h14.4827v4.0606zm37.02359-27.702c-1.173 0-2.0152-.2406-2.5265-.7219-.4813-.5113-.7219-1.1279-.7219-1.8498v-.9474c0-.7219.2406-1.3235.7219-1.8047.5113-.5113 1.3535-.767 2.5265-.767 1.2032 0 2.0453.2557 2.5266.767.4812.4812.7219 1.0828.7219 1.8047v.9474c0 .7219-.2407 1.3385-.7219 1.8498-.4813.4813-1.3234.7219-2.5266.7219zm-10.3769 23.9122h8.076v-15.7008h-8.076v-3.7899h12.6779v19.4907h7.5346v3.7898h-20.2125z" fill="#fff"/></svg>