<svg width="37" height="37" fill="none" xmlns="http://www.w3.org/2000/svg"><g clip-path="url(#clip0_149_4)"><path fill-rule="evenodd" clip-rule="evenodd" d="M18.543.5C8.352.5.089 8.763.089 18.956c0 8.154 5.288 15.071 12.622 17.512.923.17 1.26-.4 1.26-.89 0-.438-.016-1.599-.025-3.138-5.134 1.115-6.217-2.475-6.217-2.475-.84-2.13-2.05-2.698-2.05-2.698-1.675-1.146.127-1.123.127-1.123 1.852.131 2.827 1.902 2.827 1.902 1.647 2.82 4.32 2.005 5.371 1.534.168-1.193.644-2.006 1.172-2.468-4.098-.465-8.407-2.05-8.407-9.12 0-2.015.72-3.663 1.9-4.954-.19-.466-.823-2.343.18-4.884 0 0 1.55-.496 5.076 1.893a17.668 17.668 0 0 1 4.62-.622c1.567.007 3.146.212 4.62.622 3.524-2.389 5.071-1.893 5.071-1.893 1.007 2.541.373 4.418.183 4.885 1.183 1.29 1.898 2.938 1.898 4.952 0 7.09-4.316 8.65-8.427 9.107.663.57 1.253 1.695 1.253 3.418 0 2.467-.022 4.457-.022 5.062 0 .494.331 1.069 1.268.888C31.717 34.02 37 27.108 37 18.956 37 8.763 28.737.5 18.543.5z" fill="#010101"/></g><defs><clipPath id="clip0_149_4"><path fill="#fff" d="M0 0H37V37H0z"/></clipPath></defs></svg>