<svg fill="none" height="470" viewBox="0 0 724 470" width="724" xmlns="http://www.w3.org/2000/svg">
    <style>.text-bg{fill:#0051CC}.arrow{fill:#9298A2}@media (prefers-color-scheme:dark){.text-bg{fill:#1D6DE4}.arrow{fill:#444B56}}</style><path d="m36 36h651v206h-651z" fill="#fff"/><path class="text-bg" d="m675 17c11.201 0 16.802-.0002 21.08 2.1797 3.763 1.9174 6.823 4.9771 8.74 8.7402 2.18 4.2783 2.18 9.8791 2.18 21.0801v180c0 11.201 0 16.802-2.18 21.08-1.917 3.763-4.977 6.823-8.74 8.74-4.278 2.18-9.879 2.18-21.08 2.18h-626c-11.2011 0-16.8018 0-21.0801-2.18-3.7631-1.917-6.8228-4.977-8.7402-8.74-2.1799-4.278-2.1797-9.879-2.1797-21.08v-180c0-11.2011-.0002-16.8018 2.1797-21.0801 1.9174-3.7631 4.9771-6.8228 8.7402-8.7402 4.2783-2.1799 9.8791-2.1797 21.0801-2.1797zm-189.161 87.064c-9.908 0-18.542 2.332-25.901 6.996-7.361 4.664-13.164 11.307-17.41 19.928-4.104 8.48-6.157 18.656-6.157 30.528 0 11.589 2.053 21.695 6.157 30.316 4.105 8.48 9.908 15.052 17.41 19.716 7.643 4.664 16.56 6.996 26.75 6.996 10.899 0 20.099-2.403 27.6-7.208 7.502-4.805 12.88-11.024 16.136-18.656l-11.04-7.208c-2.973 6.36-7.219 11.378-12.738 15.052-5.52 3.534-12.173 5.3-19.958 5.3-10.756 0-19.249-3.321-25.477-9.964-6.086-6.784-9.129-15.476-9.129-26.076v-5.088h81.526v-6.784c0-10.6-1.981-19.928-5.944-27.984-3.821-8.056-9.342-14.346-16.56-18.868-7.077-4.664-15.499-6.996-25.265-6.996zm-426.2775-36.0396v147.9756h86.8345v-13.568h-71.3355v-134.4076zm125.8155 38.5836v12.508h40.126v84.376h-40.126v12.508h92.566v-12.508h-37.578v-96.884zm123.905-47.4879v12.5078h38.852v131.8641h-38.852v12.508h92.566v-12.508h-38.852v-144.3719zm256.514 47.4879 39.914 54.06-40.976 55.332h16.985l18.259-25.652 13.375-18.868h.849l13.588 18.656 18.683 25.864h17.834l-41.4-55.544 40.338-53.848h-16.984l-16.348 22.896-14.437 20.14h-.849l-14.649-20.352-16.56-22.684zm-79.957 9.752c9.624 0 17.338 3.251 23.141 9.752 5.803 6.36 8.706 14.84 8.706 25.44v2.12h-65.604v-1.484c0-6.925 1.415-13.073 4.246-18.444 2.831-5.512 6.794-9.752 11.89-12.72 5.095-3.109 10.969-4.664 17.621-4.664zm-252.904-58.7243c-4.388 0-7.502.9188-9.342 2.7559-1.84 1.8373-2.76 4.1696-2.76 6.9961v2.9687c0 2.8264.92 5.1579 2.76 6.9952s4.954 2.7568 9.342 2.7568c4.529-.0001 7.642-.9196 9.34-2.7568 1.84-1.8373 2.761-4.1687 2.761-6.9952v-2.9687c0-2.8265-.921-5.1588-2.761-6.9961-1.698-1.837-4.812-2.7558-9.34-2.7559z" /><g class="arrow"><path d="m177.413 432.968-64.872-64.448 64.66-65.084 8.48 8.268-30.74 30.74v.636l26.076-1.06h115.54v11.872h-152.64l-.848.424-13.568 13.568v1.272l13.568 13.78.848.424h152.64v11.872h-115.328l-26.288-1.272v.636l30.74 30.528zm-54.908 0-65.0839-64.448 65.0839-65.084 8.056 8.268-56.1799 56.18v1.272l56.1799 55.968z"/><path d="m294.354 353.892v-11.872h131.44v11.872zm0 41.34v-11.872h131.44v11.872z"/><path d="m544.773 432.968-8.268-7.844 30.74-30.528v-.636l-26.288 1.272h-115.328v-11.872h152.64l.848-.424 13.568-13.78v-1.272l-13.568-13.568-.848-.424h-152.64v-11.872h115.54l26.076 1.06v-.636l-30.74-30.74 8.48-8.268 64.872 65.084zm55.12 0-8.268-7.844 56.18-55.968v-1.272l-56.18-56.18 8.268-8.268 64.872 65.084z"/></g></svg>